<svg width="52" height="51" viewBox="0 0 52 51" fill="none" xmlns="http://www.w3.org/2000/svg">
<path d="M4.70818 26.253L9.25412 29.4405C9.34107 29.5012 9.43936 29.5445 9.54339 29.568C9.64742 29.5915 9.75514 29.5946 9.8604 29.5772C9.96566 29.5598 10.0664 29.5222 10.1568 29.4667C10.2473 29.4111 10.3257 29.3385 10.3876 29.2532L13.6376 24.7947C13.6997 24.7092 13.7441 24.6124 13.7681 24.5101C13.7922 24.4077 13.7954 24.3017 13.7777 24.1981C13.7599 24.0945 13.7216 23.9954 13.6648 23.9063C13.608 23.8173 13.5338 23.74 13.4466 23.6791C13.3594 23.6181 13.2608 23.5746 13.1564 23.551C13.052 23.5275 12.944 23.5243 12.8383 23.5417C12.7327 23.5591 12.6316 23.5967 12.5408 23.6524C12.45 23.7081 12.3713 23.7808 12.3091 23.8664L10.2047 26.755C9.61162 24.2093 9.63685 21.5625 10.2784 19.0281C10.92 16.4937 12.1599 14.1427 13.8981 12.1647C15.6364 10.1867 17.8244 8.63703 20.2855 7.64077C22.7466 6.64451 25.4121 6.22952 28.0668 6.42927C30.7215 6.62903 33.2912 7.43793 35.5686 8.79075C37.846 10.1436 39.7673 12.0024 41.1776 14.2173C42.5879 16.4323 43.4476 18.9413 43.6875 21.542C43.9274 24.1427 43.5406 26.7623 42.5585 29.1895C42.5189 29.2868 42.4993 29.3908 42.5007 29.4956C42.5022 29.6003 42.5247 29.7038 42.567 29.8C42.6092 29.8962 42.6704 29.9833 42.747 30.0563C42.8237 30.1293 42.9142 30.1868 43.0135 30.2254C43.1092 30.2625 43.2112 30.2814 43.3141 30.2812C43.4768 30.2814 43.6359 30.2336 43.7706 30.1441C43.9053 30.0546 44.0095 29.9274 44.0697 29.7792C45.1441 27.1235 45.568 24.2575 45.3073 21.4119C45.0465 18.5662 44.1084 15.8203 42.5685 13.3951C41.0285 10.9698 38.9296 8.93288 36.4407 7.44816C33.9518 5.96344 31.1424 5.07237 28.2383 4.84663C25.3343 4.62089 22.4168 5.06678 19.7205 6.14844C17.0242 7.2301 14.6244 8.91732 12.7141 11.0744C10.8038 13.2315 9.43643 15.7981 8.72188 18.568C8.00734 21.3378 7.96561 24.2334 8.60006 27.022L5.65068 24.9581C5.5645 24.8899 5.46502 24.8397 5.35836 24.8106C5.25169 24.7815 5.14009 24.7741 5.0304 24.7889C4.92071 24.8036 4.81524 24.8401 4.72048 24.8963C4.62572 24.9524 4.54365 25.027 4.47933 25.1154C4.415 25.2038 4.36977 25.3041 4.34641 25.4102C4.32306 25.5164 4.32206 25.6261 4.34349 25.7326C4.36492 25.8391 4.40833 25.9403 4.47104 26.0297C4.53375 26.1192 4.61445 26.1952 4.70818 26.253Z" fill="url(#paint0_linear_40000658_20926)"/>
<path d="M45.9387 33.1659C44.3137 31.2813 41.6487 32.1459 40.2106 32.6081C39.3006 32.9029 37.119 33.8034 34.9699 34.6959C35.0996 34.0223 35.0115 33.3258 34.7181 32.7037C33.5562 30.1019 30.6881 30.6 28.5918 30.9665C27.945 31.1043 27.287 31.1856 26.6256 31.2096C25.5051 31.1972 24.399 30.9599 23.3756 30.5123C22.0464 29.9514 20.6092 29.6795 19.1628 29.7154C16.3932 29.7657 13.6627 30.3647 11.1353 31.4765L10.6803 31.6598C6.90619 33.134 5.28119 33.4687 5.28119 33.4687C5.13001 33.4983 4.99052 33.5694 4.87902 33.6738C4.76752 33.7783 4.68861 33.9116 4.65151 34.0584C4.62307 34.1739 3.98526 36.8475 5.79307 40.6047C7.34494 43.7922 9.16088 45.0154 10.4081 45.4577C10.5375 45.5032 10.6766 45.5157 10.8123 45.4941C10.948 45.4725 11.0759 45.4175 11.184 45.3342C11.184 45.3342 12.2037 44.5373 12.9837 44.091C13.4996 43.7843 14.7549 43.589 17.8262 44.4257C20.6677 45.1673 23.5885 45.5779 26.5281 45.6489C27.6728 45.6855 28.8156 45.532 29.9081 45.1947C33.1134 43.9994 40.9134 40.015 43.9806 38.3814C45.6056 37.5128 46.4912 36.5765 46.6943 35.5167C46.7604 35.0942 46.7267 34.6626 46.5956 34.255C46.4646 33.8474 46.2399 33.4748 45.9387 33.1659ZM45.0937 35.2258C44.9921 35.7637 44.3178 36.3892 43.2006 36.9869C40.6249 38.3695 32.5243 42.5332 29.3353 43.7085C27.0968 44.5293 21.4621 43.7643 18.2609 42.9117C16.9818 42.5177 15.6556 42.29 14.3162 42.2343C13.5564 42.1983 12.8014 42.3693 12.1346 42.7284C11.5862 43.0551 10.9606 43.5014 10.5665 43.7882C9.34776 43.1906 8.18994 41.8359 7.25963 39.9154C6.45639 38.3609 6.08108 36.6276 6.17088 34.8871C7.90756 34.3899 9.61503 33.7993 11.2856 33.1181L11.7528 32.9308C14.0938 31.8935 16.6267 31.3376 19.1953 31.2972C20.4363 31.2656 21.6689 31.5066 22.8028 32.0025C23.9995 32.5171 25.2904 32.7882 26.5971 32.7993C27.3633 32.7761 28.126 32.6867 28.8762 32.5324C31.1146 32.1339 32.6259 31.9865 33.2271 33.3292C33.3298 33.5358 33.3881 33.7609 33.3986 33.9904C33.4091 34.22 33.3715 34.4493 33.2881 34.664C33.0606 35.2139 32.4756 35.7159 31.5574 36.1223C30.7449 36.457 30.1356 36.716 29.8674 36.8196C28.1449 37.481 26.6621 37.2499 25.2281 37.0267L24.4399 36.9072C24.2245 36.8787 24.0062 36.9353 23.8333 37.0645C23.6603 37.1938 23.5468 37.3852 23.5178 37.5965C23.4887 37.8079 23.5464 38.0219 23.6782 38.1915C23.81 38.3611 24.0051 38.4724 24.2206 38.501C24.4684 38.5328 24.7203 38.5727 24.9721 38.6125C26.5443 38.8556 28.3237 39.1305 30.4606 38.3137C30.7084 38.2181 31.204 38.0149 31.8621 37.736C31.984 37.6882 32.1018 37.6403 32.2156 37.5885L33.2637 37.1503C35.9084 36.0346 39.5321 34.5046 40.7224 34.1221C42.6115 33.5125 43.9359 33.3253 44.6956 34.1939C45.1871 34.7596 45.1181 35.1103 45.0937 35.2258Z" fill="url(#paint1_linear_40000658_20926)"/>
<path d="M25.9989 13.4513V14.5072C25.7172 14.5701 25.4443 14.6664 25.1864 14.794C24.7725 14.9984 24.4228 15.309 24.1746 15.6928C23.9264 16.0766 23.7889 16.5192 23.7767 16.9735C23.7198 18.7226 25.3245 19.3083 26.4945 19.7347C27.8595 20.2327 28.2739 20.4877 28.2129 21.1252C28.2006 21.3421 28.123 21.5506 27.99 21.7244C27.857 21.8981 27.6744 22.0293 27.4654 22.1014C27.0744 22.2477 26.6548 22.3058 26.2377 22.2713C25.8207 22.2368 25.4169 22.1106 25.0564 21.9022C24.9724 21.8373 24.8761 21.7893 24.7732 21.7609C24.6702 21.7324 24.5626 21.7242 24.4564 21.7366C24.3502 21.749 24.2475 21.7818 24.1543 21.8331C24.061 21.8844 23.9789 21.9532 23.9128 22.0356C23.8466 22.118 23.7977 22.2124 23.7687 22.3134C23.7398 22.4144 23.7313 22.5199 23.744 22.6241C23.7566 22.7282 23.7901 22.8289 23.8424 22.9204C23.8947 23.0119 23.9649 23.0924 24.0489 23.1572C24.6211 23.56 25.2962 23.7987 25.9989 23.8465V24.7988C25.9989 25.0101 26.0845 25.2128 26.2369 25.3623C26.3892 25.5117 26.5959 25.5957 26.8114 25.5957C27.0269 25.5957 27.2335 25.5117 27.3859 25.3623C27.5383 25.2128 27.6239 25.0101 27.6239 24.7988V23.727C27.7938 23.6847 27.9608 23.6315 28.1236 23.5676C28.6006 23.3829 29.0153 23.0707 29.3205 22.6664C29.6257 22.2621 29.8092 21.782 29.8501 21.2806C30.0451 19.3203 28.2617 18.6708 27.0836 18.2405C25.8201 17.7823 25.4017 17.5432 25.4179 17.0253C25.4221 16.8509 25.4761 16.6811 25.5738 16.5353C25.6715 16.3895 25.8089 16.2735 25.9704 16.2005C26.3452 16.0411 26.7545 15.9755 27.1615 16.0095C27.5685 16.0436 27.9605 16.1763 28.3023 16.3957C28.3928 16.4549 28.4944 16.4956 28.6011 16.5155C28.7079 16.5354 28.8177 16.5341 28.9239 16.5117C29.0302 16.4893 29.1308 16.4462 29.2197 16.3849C29.3087 16.3237 29.3842 16.2456 29.4418 16.1552C29.4995 16.0648 29.538 15.964 29.5552 15.8588C29.5724 15.7535 29.5679 15.6459 29.542 15.5424C29.516 15.4389 29.4692 15.3416 29.4042 15.2561C29.3392 15.1707 29.2574 15.0989 29.1636 15.045C28.6931 14.757 28.1703 14.5608 27.6239 14.4673V13.4513C27.6239 13.2399 27.5383 13.0373 27.3859 12.8878C27.2335 12.7384 27.0269 12.6544 26.8114 12.6544C26.5959 12.6544 26.3892 12.7384 26.2369 12.8878C26.0845 13.0373 25.9989 13.2399 25.9989 13.4513Z" fill="url(#paint2_linear_40000658_20926)"/>
<path d="M17.0625 19.125C17.0625 21.0163 17.6343 22.8651 18.7057 24.4376C19.777 26.0102 21.2998 27.2358 23.0813 27.9596C24.8629 28.6834 26.8233 28.8727 28.7146 28.5038C30.6059 28.1348 32.3432 27.224 33.7068 25.8867C35.0704 24.5494 35.999 22.8455 36.3752 20.9906C36.7514 19.1356 36.5583 17.2129 35.8203 15.4656C35.0824 13.7183 33.8327 12.2248 32.2293 11.1741C30.6259 10.1233 28.7409 9.5625 26.8125 9.5625C24.2266 9.5625 21.7467 10.57 19.9182 12.3633C18.0897 14.1566 17.0625 16.5889 17.0625 19.125ZM34.9375 19.125C34.9375 20.7011 34.461 22.2417 33.5682 23.5522C32.6754 24.8627 31.4065 25.884 29.9218 26.4872C28.4372 27.0903 26.8035 27.2481 25.2274 26.9406C23.6513 26.6332 22.2036 25.8742 21.0673 24.7598C19.931 23.6453 19.1571 22.2254 18.8436 20.6796C18.5301 19.1338 18.691 17.5316 19.306 16.0755C19.9209 14.6194 20.9623 13.3748 22.2985 12.4992C23.6346 11.6236 25.2055 11.1562 26.8125 11.1562C28.9674 11.1562 31.034 11.9958 32.5577 13.4902C34.0815 14.9847 34.9375 17.0116 34.9375 19.125Z" fill="url(#paint3_linear_40000658_20926)"/>
<defs>
<linearGradient id="paint0_linear_40000658_20926" x1="24.8551" y1="4.78955" x2="24.8551" y2="30.2812" gradientUnits="userSpaceOnUse">
<stop stop-color="#26BEFE"/>
<stop offset="1" stop-color="#8234FE"/>
</linearGradient>
<linearGradient id="paint1_linear_40000658_20926" x1="25.6234" y1="29.7123" x2="25.6234" y2="45.6542" gradientUnits="userSpaceOnUse">
<stop stop-color="#26BEFE"/>
<stop offset="1" stop-color="#8234FE"/>
</linearGradient>
<linearGradient id="paint2_linear_40000658_20926" x1="26.8016" y1="12.6544" x2="26.8016" y2="25.5957" gradientUnits="userSpaceOnUse">
<stop stop-color="#26BEFE"/>
<stop offset="1" stop-color="#8234FE"/>
</linearGradient>
<linearGradient id="paint3_linear_40000658_20926" x1="26.8125" y1="9.5625" x2="26.8125" y2="28.6875" gradientUnits="userSpaceOnUse">
<stop stop-color="#26BEFE"/>
<stop offset="1" stop-color="#8234FE"/>
</linearGradient>
</defs>
</svg>
