<svg width="47" height="47" viewBox="0 0 47 47" fill="none" xmlns="http://www.w3.org/2000/svg">
<path d="M32.2204 40.4628H20.2314C19.8755 40.4628 19.5428 40.5535 19.2431 40.7018C19.3914 40.4021 19.4821 40.0694 19.4821 39.7135V38.2149C19.4821 37.6371 19.2565 37.1149 18.8976 36.7162C19.2573 36.3176 19.4821 35.7953 19.4821 35.2176V33.719C19.4821 32.4796 18.4735 31.4711 17.2342 31.4711H16.8228C18.3821 30.5741 19.7046 29.3168 20.6787 27.8092C23.5081 30.168 27.0336 31.4711 30.7217 31.4711C39.3988 31.4711 46.4573 24.4118 46.4573 15.7355C46.4573 7.05851 39.3988 0 30.7217 0C23.6243 0 17.5481 4.63749 15.6209 11.3798C14.2736 10.8073 12.793 10.4904 11.2397 10.4904C5.04211 10.4904 0 15.5325 0 21.73C0 25.8947 2.2824 29.5296 5.65655 31.4711H5.24518C4.00582 31.4711 2.99724 32.4796 2.99724 33.719V35.2176C2.99724 35.7953 3.22279 36.3176 3.58171 36.7162C3.22279 37.1149 2.99724 37.6371 2.99724 38.2149V39.7135C2.99724 40.2912 3.22279 40.8135 3.58171 41.2121C3.22279 41.6107 2.99724 42.133 2.99724 42.7107V44.2093C2.99724 45.4487 4.00582 46.4573 5.24518 46.4573H17.2342C17.8119 46.4573 18.3341 46.2317 18.7328 45.8728C19.1314 46.2325 19.6537 46.4573 20.2314 46.4573H32.2204C33.4597 46.4573 34.4683 45.4487 34.4683 44.2093V42.7107C34.4683 41.4714 33.4597 40.4628 32.2204 40.4628ZM5.24518 40.4628C4.83231 40.4628 4.49587 40.1271 4.49587 39.7135V38.2149C4.49587 37.8012 4.83231 37.4655 5.24518 37.4655H5.99449V38.9642H7.49311V37.4655H8.99173V38.9642H10.4904V37.4655H11.989V38.9642H13.4876V37.4655H14.9862V38.9642H16.4848V37.4655H17.2342C17.647 37.4655 17.9835 37.8012 17.9835 38.2149V39.7135C17.9835 40.1271 17.647 40.4628 17.2342 40.4628H5.24518ZM30.7217 1.49862C38.5723 1.49862 44.9587 7.885 44.9587 15.7355C44.9587 23.5861 38.5723 29.9724 30.7217 29.9724C27.2892 29.9724 24.0117 28.7248 21.4168 26.4702C22.0912 25.0277 22.4793 23.425 22.4793 21.73C22.4793 17.632 20.2674 14.0496 16.9816 12.0856C18.6316 5.82814 24.199 1.49862 30.7217 1.49862ZM1.49862 21.73C1.49862 16.359 5.8686 11.989 11.2397 11.989C16.6107 11.989 20.9807 16.359 20.9807 21.73C20.9807 27.1011 16.6107 31.4711 11.2397 31.4711C5.8686 31.4711 1.49862 27.1011 1.49862 21.73ZM4.49587 33.719C4.49587 33.3054 4.83231 32.9697 5.24518 32.9697H5.99449V34.4683H7.49311V32.9697H8.99173V34.4683H10.4904V32.9697H11.989V34.4683H13.4876V32.9697H14.9862V34.4683H16.4848V32.9697H17.2342C17.647 32.9697 17.9835 33.3054 17.9835 33.719V35.2176C17.9835 35.6312 17.647 35.9669 17.2342 35.9669H5.24518C4.83231 35.9669 4.49587 35.6312 4.49587 35.2176V33.719ZM17.2342 44.9587H5.24518C4.83231 44.9587 4.49587 44.623 4.49587 44.2093V42.7107C4.49587 42.2971 4.83231 41.9614 5.24518 41.9614H5.99449V43.46H7.49311V41.9614H8.99173V43.46H10.4904V41.9614H11.989V43.46H13.4876V41.9614H14.9862V43.46H16.4848V41.9614H17.2342C17.647 41.9614 17.9835 42.2971 17.9835 42.7107V44.2093C17.9835 44.623 17.647 44.9587 17.2342 44.9587ZM32.9697 44.2093C32.9697 44.623 32.6332 44.9587 32.2204 44.9587H20.2314C19.8185 44.9587 19.4821 44.623 19.4821 44.2093V42.7107C19.4821 42.2971 19.8185 41.9614 20.2314 41.9614H20.9807V43.46H22.4793V41.9614H23.9779V43.46H25.4766V41.9614H26.9752V43.46H28.4738V41.9614H29.9724V43.46H31.4711V41.9614H32.2204C32.6332 41.9614 32.9697 42.2971 32.9697 42.7107V44.2093Z" fill="url(#paint0_linear_40000658_20934)"/>
<path d="M11.9887 19.4821C12.4016 19.4821 12.7381 19.8185 12.7381 20.2314H14.2367C14.2367 18.9921 13.2281 17.9835 11.9887 17.9835V16.4849H10.4901V17.9835H8.24219V20.2314C8.24219 21.4708 9.25076 22.4794 10.4901 22.4794H11.9887C12.4016 22.4794 12.7381 22.8158 12.7381 23.2287V23.978H10.4901C10.0772 23.978 9.74081 23.6415 9.74081 23.2287H8.24219C8.24219 24.468 9.25076 25.4766 10.4901 25.4766V26.9752H11.9887V25.4766H14.2367V23.2287C14.2367 21.9893 13.2281 20.9807 11.9887 20.9807H10.4901C10.0772 20.9807 9.74081 20.6443 9.74081 20.2314V19.4821H11.9887Z" fill="url(#paint1_linear_40000658_20934)"/>
<path d="M11.2385 13.4875C6.69394 13.4875 2.99609 17.1854 2.99609 21.73C2.99609 26.2745 6.69394 29.9724 11.2385 29.9724C15.7831 29.9724 19.4809 26.2745 19.4809 21.73C19.4809 17.1854 15.7831 13.4875 11.2385 13.4875ZM11.2385 28.4738C7.52043 28.4738 4.49472 25.4488 4.49472 21.73C4.49472 18.0119 7.52043 14.9862 11.2385 14.9862C14.9566 14.9862 17.9823 18.0119 17.9823 21.73C17.9823 25.4488 14.9566 28.4738 11.2385 28.4738Z" fill="url(#paint2_linear_40000658_20934)"/>
<path d="M27.9124 4.84959L27.5377 3.39893C23.6458 4.40075 20.42 7.22716 18.9102 10.9587L20.2994 11.5207C21.6324 8.22749 24.4783 5.73378 27.9124 4.84959Z" fill="url(#paint3_linear_40000658_20934)"/>
<path d="M30.7204 4.49581V2.99719C30.1877 2.99719 29.6519 3.03016 29.1289 3.0961L29.3147 4.58273C29.7771 4.52504 30.2499 4.49581 30.7204 4.49581Z" fill="url(#paint4_linear_40000658_20934)"/>
<path d="M36.3398 25.472L37.0907 26.7683C41.0185 24.4964 43.4583 20.2688 43.4583 15.7355H41.9597C41.9597 19.7353 39.8062 23.4661 36.3398 25.472Z" fill="url(#paint5_linear_40000658_20934)"/>
<path d="M33.5312 26.6208L33.9052 28.0729C34.4462 27.9328 34.9819 27.7567 35.4982 27.5477L34.9355 26.1584C34.4814 26.342 34.0086 26.4979 33.5312 26.6208Z" fill="url(#paint6_linear_40000658_20934)"/>
<path d="M30.7227 26.9752V28.4738C31.2554 28.4738 31.7912 28.4409 32.3142 28.3749L32.1284 26.8883C31.666 26.946 31.1932 26.9752 30.7227 26.9752Z" fill="url(#paint7_linear_40000658_20934)"/>
<path d="M37.4671 19.4821C37.4671 17.8291 36.1229 16.4849 34.4699 16.4849C32.8169 16.4849 31.4727 17.8291 31.4727 19.4821C31.4727 21.1351 32.8169 22.4794 34.4699 22.4794C36.1229 22.4794 37.4671 21.1351 37.4671 19.4821ZM32.9713 19.4821C32.9713 18.6556 33.6434 17.9835 34.4699 17.9835C35.2964 17.9835 35.9685 18.6556 35.9685 19.4821C35.9685 20.3086 35.2964 20.9807 34.4699 20.9807C33.6434 20.9807 32.9713 20.3086 32.9713 19.4821Z" fill="url(#paint8_linear_40000658_20934)"/>
<path d="M23.9766 11.9889C23.9766 13.6419 25.3208 14.9862 26.9738 14.9862C28.6268 14.9862 29.971 13.6419 29.971 11.9889C29.971 10.336 28.6268 8.9917 26.9738 8.9917C25.3208 8.9917 23.9766 10.336 23.9766 11.9889ZM28.4724 11.9889C28.4724 12.8154 27.8003 13.4876 26.9738 13.4876C26.1473 13.4876 25.4752 12.8154 25.4752 11.9889C25.4752 11.1625 26.1473 10.4903 26.9738 10.4903C27.8003 10.4903 28.4724 11.1625 28.4724 11.9889Z" fill="url(#paint9_linear_40000658_20934)"/>
<path d="M22.6953 22.6992L37.6791 7.71541L38.7386 8.77493L23.7548 23.7587L22.6953 22.6992Z" fill="url(#paint10_linear_40000658_20934)"/>
<path d="M32.9688 32.9697H43.4591V34.4683H32.9688V32.9697Z" fill="url(#paint11_linear_40000658_20934)"/>
<path d="M32.9688 35.9669H43.4591V37.4655H32.9688V35.9669Z" fill="url(#paint12_linear_40000658_20934)"/>
<path d="M38.9648 38.9641H40.4635V40.4627H38.9648V38.9641Z" fill="url(#paint13_linear_40000658_20934)"/>
<path d="M41.9609 38.9641H43.4596V40.4627H41.9609V38.9641Z" fill="url(#paint14_linear_40000658_20934)"/>
<path d="M35.9688 38.9641H37.4674V40.4627H35.9688V38.9641Z" fill="url(#paint15_linear_40000658_20934)"/>
<defs>
<linearGradient id="paint0_linear_40000658_20934" x1="23.2286" y1="0" x2="23.2286" y2="46.4573" gradientUnits="userSpaceOnUse">
<stop stop-color="#26BEFE"/>
<stop offset="1" stop-color="#8234FE"/>
</linearGradient>
<linearGradient id="paint1_linear_40000658_20934" x1="11.2394" y1="16.4849" x2="11.2394" y2="26.9752" gradientUnits="userSpaceOnUse">
<stop stop-color="#26BEFE"/>
<stop offset="1" stop-color="#8234FE"/>
</linearGradient>
<linearGradient id="paint2_linear_40000658_20934" x1="11.2385" y1="13.4875" x2="11.2385" y2="29.9724" gradientUnits="userSpaceOnUse">
<stop stop-color="#26BEFE"/>
<stop offset="1" stop-color="#8234FE"/>
</linearGradient>
<linearGradient id="paint3_linear_40000658_20934" x1="23.4113" y1="3.39893" x2="23.4113" y2="11.5207" gradientUnits="userSpaceOnUse">
<stop stop-color="#26BEFE"/>
<stop offset="1" stop-color="#8234FE"/>
</linearGradient>
<linearGradient id="paint4_linear_40000658_20934" x1="29.9247" y1="2.99719" x2="29.9247" y2="4.58273" gradientUnits="userSpaceOnUse">
<stop stop-color="#26BEFE"/>
<stop offset="1" stop-color="#8234FE"/>
</linearGradient>
<linearGradient id="paint5_linear_40000658_20934" x1="39.8991" y1="15.7355" x2="39.8991" y2="26.7683" gradientUnits="userSpaceOnUse">
<stop stop-color="#26BEFE"/>
<stop offset="1" stop-color="#8234FE"/>
</linearGradient>
<linearGradient id="paint6_linear_40000658_20934" x1="34.5147" y1="26.1584" x2="34.5147" y2="28.0729" gradientUnits="userSpaceOnUse">
<stop stop-color="#26BEFE"/>
<stop offset="1" stop-color="#8234FE"/>
</linearGradient>
<linearGradient id="paint7_linear_40000658_20934" x1="31.5184" y1="26.8883" x2="31.5184" y2="28.4738" gradientUnits="userSpaceOnUse">
<stop stop-color="#26BEFE"/>
<stop offset="1" stop-color="#8234FE"/>
</linearGradient>
<linearGradient id="paint8_linear_40000658_20934" x1="34.4699" y1="16.4849" x2="34.4699" y2="22.4794" gradientUnits="userSpaceOnUse">
<stop stop-color="#26BEFE"/>
<stop offset="1" stop-color="#8234FE"/>
</linearGradient>
<linearGradient id="paint9_linear_40000658_20934" x1="26.9738" y1="8.9917" x2="26.9738" y2="14.9862" gradientUnits="userSpaceOnUse">
<stop stop-color="#26BEFE"/>
<stop offset="1" stop-color="#8234FE"/>
</linearGradient>
<linearGradient id="paint10_linear_40000658_20934" x1="30.1872" y1="15.2073" x2="31.2467" y2="16.2668" gradientUnits="userSpaceOnUse">
<stop stop-color="#26BEFE"/>
<stop offset="1" stop-color="#8234FE"/>
</linearGradient>
<linearGradient id="paint11_linear_40000658_20934" x1="38.2139" y1="32.9697" x2="38.2139" y2="34.4683" gradientUnits="userSpaceOnUse">
<stop stop-color="#26BEFE"/>
<stop offset="1" stop-color="#8234FE"/>
</linearGradient>
<linearGradient id="paint12_linear_40000658_20934" x1="38.2139" y1="35.9669" x2="38.2139" y2="37.4655" gradientUnits="userSpaceOnUse">
<stop stop-color="#26BEFE"/>
<stop offset="1" stop-color="#8234FE"/>
</linearGradient>
<linearGradient id="paint13_linear_40000658_20934" x1="39.7142" y1="38.9641" x2="39.7142" y2="40.4627" gradientUnits="userSpaceOnUse">
<stop stop-color="#26BEFE"/>
<stop offset="1" stop-color="#8234FE"/>
</linearGradient>
<linearGradient id="paint14_linear_40000658_20934" x1="42.7102" y1="38.9641" x2="42.7102" y2="40.4627" gradientUnits="userSpaceOnUse">
<stop stop-color="#26BEFE"/>
<stop offset="1" stop-color="#8234FE"/>
</linearGradient>
<linearGradient id="paint15_linear_40000658_20934" x1="36.7181" y1="38.9641" x2="36.7181" y2="40.4627" gradientUnits="userSpaceOnUse">
<stop stop-color="#26BEFE"/>
<stop offset="1" stop-color="#8234FE"/>
</linearGradient>
</defs>
</svg>
