<svg width="50" height="50" viewBox="0 0 50 50" fill="none" xmlns="http://www.w3.org/2000/svg">
<path d="M43.0317 27.129C43.0317 22.0666 38.913 17.948 33.8506 17.948C28.7882 17.948 24.6696 22.0666 24.6696 27.129C24.6696 32.1915 28.7882 36.31 33.8506 36.31C38.913 36.31 43.0317 32.1915 43.0317 27.129ZM33.8506 34.6225C29.7187 34.6225 26.3571 31.2609 26.3571 27.129C26.3571 22.997 29.7187 19.6355 33.8506 19.6355C37.9826 19.6355 41.3442 22.9971 41.3442 27.129C41.3442 31.261 37.9826 34.6225 33.8506 34.6225ZM49.0354 43.9717L44.6363 36.3522C44.9205 36.2089 45.2123 36.0772 45.5002 35.948C46.7049 35.4076 48.0703 34.7953 48.6982 33.2792C49.3268 31.7617 48.7929 30.3589 48.322 29.1213C48.0638 28.4426 47.8191 27.7998 47.7275 27.1292C47.8207 26.4502 48.0765 25.7783 48.3241 25.1277C48.7938 23.8937 49.3263 22.4952 48.6982 20.9791C48.0697 19.4616 46.7004 18.8471 45.4922 18.305C44.8297 18.0078 44.2023 17.7262 43.663 17.3168C43.2488 16.7708 42.9547 16.1149 42.6697 15.4796C42.1294 14.275 41.5169 12.9095 40.0007 12.2814C38.4831 11.6529 37.0805 12.1867 35.8429 12.6577C35.4522 12.8064 35.0734 12.9495 34.6943 13.0626V4.32187C34.6943 3.92299 34.4149 3.57853 34.0244 3.49626L17.5212 0.0181143C17.4065 -0.00603808 17.288 -0.00603808 17.1733 0.0181143L0.669832 3.49626C0.279387 3.57853 0 3.92299 0 4.32187V20.4247C0 24.9882 1.84402 29.5827 5.19244 33.3619C8.43339 37.0199 12.8159 39.5134 17.2166 40.203C17.2599 40.2097 17.3035 40.2132 17.3472 40.2132C17.3908 40.2132 17.4345 40.2098 17.4778 40.203C18.8328 39.9907 20.1736 39.6158 21.4869 39.0855L18.6659 43.9718C18.5108 44.2402 18.5155 44.5719 18.6779 44.8359C18.8403 45.0998 19.135 45.2533 19.4438 45.236L23.4194 45.0129L25.2141 48.5676C25.3537 48.8442 25.6339 49.0221 25.9436 49.0307C25.9515 49.0309 25.9594 49.031 25.9675 49.031C26.2683 49.031 26.5471 48.8706 26.698 48.6091L30.4717 42.073C30.9534 41.9446 31.4165 41.7687 31.8584 41.6005C32.5371 41.3422 33.1797 41.0977 33.8505 41.006C34.5295 41.0991 35.2015 41.355 35.8521 41.6026C36.291 41.7697 36.7508 41.9442 37.2291 42.0721L41.0033 48.6093C41.1543 48.8707 41.4331 49.0311 41.7339 49.0311C41.7418 49.0311 41.7497 49.031 41.7577 49.0308C42.0675 49.0222 42.3476 48.8443 42.4872 48.5677L44.2819 45.013L48.2575 45.2362C48.5664 45.2533 48.8611 45.0999 49.0235 44.836C49.1858 44.5718 49.1903 44.2401 49.0354 43.9717ZM17.3473 38.5147C8.84482 37.1104 1.6875 28.8577 1.6875 20.4247V5.00636L17.3473 1.70604L33.007 5.00636V13.0625C32.6158 12.9464 32.2289 12.8001 31.8493 12.6556C31.2212 12.4164 30.5503 12.1615 29.843 12.0511V8.25744C29.843 7.85855 29.5636 7.51409 29.1732 7.43183L17.5212 4.9762C17.4065 4.95205 17.288 4.95205 17.1733 4.9762L5.52139 7.43183C5.13095 7.51409 4.85156 7.85855 4.85156 8.25744V20.4246C4.85156 23.6674 6.17077 27.0134 8.56628 29.8463C10.8788 32.5811 14.0123 34.5531 17.1634 35.2569C17.2239 35.2704 17.2856 35.2772 17.3473 35.2772C17.409 35.2772 17.4707 35.2704 17.5312 35.2569C18.3024 35.0847 19.076 34.8359 19.8391 34.5177C20.5216 35.1937 21.4009 35.5903 22.2092 35.953C22.5031 36.0848 22.7895 36.2142 23.065 36.3524L22.9812 36.4975C21.1608 37.5186 19.2673 38.1974 17.3473 38.5147ZM19.3792 25.1368C19.6375 25.8155 19.8822 26.4582 19.9739 27.129C19.8806 27.808 19.6249 28.4798 19.3772 29.1305C18.9293 30.307 18.4254 31.6333 18.9235 33.0683C18.3998 33.2734 17.8724 33.4409 17.3471 33.5675C11.4695 32.1548 6.53906 26.1812 6.53906 20.4247V8.94193L17.3473 6.66412L28.1555 8.94193V12.1261C28.0051 12.1671 27.8536 12.2181 27.7006 12.2814C26.1831 12.91 25.5687 14.2793 25.0266 15.4875C24.7294 16.1501 24.4478 16.7774 24.0383 17.3166C23.4923 17.7309 22.8364 18.025 22.2011 18.31C20.9964 18.8504 19.631 19.4629 19.003 20.979C18.3744 22.4965 18.9082 23.8991 19.3792 25.1368ZM26.0172 46.4136L24.6772 43.7592C24.5258 43.4596 24.2116 43.2779 23.8766 43.297L20.9079 43.4636L24.3774 37.4541C24.6255 37.8759 24.8314 38.332 25.0317 38.7786C25.5721 39.9833 26.1846 41.3487 27.7007 41.9767C27.954 42.0817 28.2039 42.1535 28.4505 42.1994L26.0172 46.4136ZM33.9463 39.3172C33.8826 39.31 33.8186 39.31 33.755 39.3172C32.8387 39.4218 31.9991 39.7413 31.2582 40.0233C30.0098 40.4984 29.2009 40.7718 28.3464 40.4176C27.4931 40.0642 27.1159 39.3021 26.5714 38.0879C26.2462 37.3631 25.8777 36.5416 25.2999 35.815C25.2601 35.7649 25.2147 35.7196 25.1647 35.6797C24.4429 35.1058 23.6232 34.738 22.8999 34.4135C21.681 33.8666 20.916 33.4881 20.562 32.6335C20.2085 31.7801 20.4808 30.9746 20.9543 29.7309C21.237 28.9885 21.5573 28.147 21.6625 27.2247C21.6698 27.1611 21.6698 27.097 21.6625 27.0334C21.558 26.1172 21.2385 25.2776 20.9565 24.5366C20.4813 23.2881 20.208 22.4795 20.5621 21.6248C20.9156 20.7714 21.6776 20.3943 22.8919 19.8497C23.6167 19.5246 24.4382 19.1562 25.1647 18.5784C25.2149 18.5386 25.2602 18.4932 25.3001 18.4431C25.8739 17.7213 26.2418 16.9016 26.5663 16.1784C27.1133 14.9594 27.4918 14.1945 28.3465 13.8404C28.6166 13.7285 28.8817 13.6794 29.1576 13.6794C29.7534 13.6794 30.3989 13.909 31.249 14.2327C31.9913 14.5153 32.8328 14.8356 33.7551 14.9409C33.8188 14.9482 33.8828 14.9482 33.9464 14.9409C34.8627 14.8364 35.7023 14.5168 36.4433 14.2349C37.6918 13.7597 38.5006 13.4865 39.355 13.8405C40.2084 14.194 40.5855 14.9561 41.1301 16.1703C41.4552 16.8951 41.8236 17.7166 42.4014 18.4431C42.4413 18.4932 42.4866 18.5386 42.5367 18.5784C43.2585 19.1523 44.0781 19.5201 44.8014 19.8447C46.0203 20.3915 46.7854 20.77 47.1394 21.6248C47.4929 22.4781 47.2207 23.2837 46.7471 24.5274C46.4645 25.2698 46.1442 26.1112 46.0389 27.0334C46.0316 27.097 46.0316 27.1611 46.0389 27.2247C46.1434 28.1409 46.463 28.9806 46.7449 29.7214C47.22 30.97 47.4933 31.7787 47.1393 32.6334C46.7857 33.4867 46.0237 33.8638 44.8096 34.4084C44.0848 34.7336 43.2633 35.1021 42.5366 35.6797C42.4865 35.7195 42.4413 35.7649 42.4014 35.815C41.8275 36.5369 41.4597 37.3566 41.1351 38.0798C40.5882 39.2987 40.2096 40.0636 39.3549 40.4177C38.5016 40.771 37.6961 40.499 36.4523 40.0256C35.71 39.7428 34.8685 39.4225 33.9463 39.3172ZM43.8247 43.297C43.4897 43.2781 43.1754 43.4596 43.0242 43.7592L41.6841 46.4135L39.2511 42.1995C39.4976 42.1536 39.7475 42.0815 40.0007 41.9766C41.5182 41.3482 42.1327 39.9787 42.6748 38.7705C42.8822 38.3082 43.0829 37.8639 43.3238 37.4538L46.7934 43.4636L43.8247 43.297ZM38.5869 23.7726C38.9164 24.1021 38.9164 24.6363 38.5869 24.9658L33.0674 30.4853C32.9091 30.6435 32.6946 30.7324 32.4708 30.7324C32.247 30.7324 32.0324 30.6435 31.8741 30.4853L29.1144 27.7255C28.785 27.396 28.785 26.8618 29.1144 26.5323C29.4441 26.2028 29.9782 26.2028 30.3077 26.5323L32.4708 28.6955L37.3936 23.7726C37.7232 23.4431 38.2573 23.4431 38.5869 23.7726Z" fill="url(#paint0_linear_40000658_20922)"/>
<defs>
<linearGradient id="paint0_linear_40000658_20922" x1="24.5742" y1="0" x2="24.5742" y2="49.0311" gradientUnits="userSpaceOnUse">
<stop stop-color="#26BEFE"/>
<stop offset="1" stop-color="#8234FE"/>
</linearGradient>
</defs>
</svg>
