<svg width="56" height="44" viewBox="0 0 56 44" fill="none" xmlns="http://www.w3.org/2000/svg">
<path d="M55.9924 9.25233V9.1746C55.9711 9.12056 55.9451 9.06858 55.9146 9.01915L55.8563 8.94142L55.7397 8.81512L55.6717 8.75682L55.5454 8.69853H55.4968L34.3941 0.0708649C34.1604 -0.0236216 33.899 -0.0236216 33.6654 0.0708649L12.6112 8.55279H12.5626L12.4363 8.61108L12.3683 8.66938L12.2517 8.79568L12.1934 8.87341C12.1629 8.92284 12.1369 8.97482 12.1156 9.02886V9.10659C12.1054 9.18723 12.1054 9.26885 12.1156 9.34949V17.1222H0.971583C0.435026 17.1222 0 17.5572 0 18.0937C0 18.6303 0.435026 19.0653 0.971583 19.0653V19.1916H11.9991V22.5144H8.21959C7.68304 22.5144 7.24801 22.9495 7.24801 23.486C7.24801 24.0226 7.68304 24.4576 8.21959 24.4576H11.9991V27.7804H3.04106C2.5045 27.7804 2.06947 28.2155 2.06947 28.752C2.06947 29.2886 2.5045 29.7236 3.04106 29.7236H11.9991V33.7848C12.001 34.1771 12.2387 34.5296 12.6014 34.6787L33.6654 43.4229C33.7707 43.4647 33.8825 43.4876 33.9957 43.4909C34.1089 43.4876 34.2207 43.4647 34.326 43.4229L55.39 34.6787C55.7527 34.5296 55.9904 34.1771 55.9924 33.7848V9.49522C56.0026 9.41458 56.0026 9.33297 55.9924 9.25233ZM34.0248 2.04318L42.0113 5.23969L23.8427 12.9249L15.5356 9.46608L34.0248 2.04318ZM33.0241 41.0814L13.9422 33.1338V29.7139H17.9743C18.5108 29.7139 18.9459 29.2788 18.9459 28.7423C18.9459 28.2057 18.5108 27.7707 17.9743 27.7707H13.9422V24.4479H23.1723C23.7088 24.4479 24.1438 24.0129 24.1438 23.4763C24.1438 22.9398 23.7088 22.5047 23.1723 22.5047H13.9422V19.1916H15.8854C16.4219 19.1916 16.857 18.7566 16.857 18.22C16.857 17.6835 16.4219 17.2485 15.8854 17.2485H13.9422V10.9137L21.3651 13.9839L33.0241 18.8419V41.0814ZM34.0346 17.1999L26.3591 13.9839L44.5471 6.26957L52.5044 9.47579L40.9134 14.3337L34.0346 17.1999ZM34.9964 41.0814V18.8419L40.4664 16.5684L54.0686 10.8943L54.1172 33.1338L34.9964 41.0814Z" fill="url(#paint0_linear_40000658_20917)"/>
<defs>
<linearGradient id="paint0_linear_40000658_20917" x1="28" y1="0" x2="28" y2="43.4909" gradientUnits="userSpaceOnUse">
<stop stop-color="#26BEFE"/>
<stop offset="1" stop-color="#8234FE"/>
</linearGradient>
</defs>
</svg>
