<svg width="163" height="49" viewBox="0 0 163 49" fill="none" xmlns="http://www.w3.org/2000/svg">
<g clip-path="url(#clip0_865_19054)">
<path d="M16.3971 30.8537C17.2284 30.6577 17.75 29.8084 17.5544 28.9591L15.5169 20.4657C15.3539 19.7797 15.5006 19.0611 15.9407 18.4894C16.3808 17.9341 17.0328 17.6074 17.75 17.6074H25.9815C26.8454 17.6074 27.5463 16.9051 27.5463 16.0394C27.5463 15.1737 26.8454 14.4714 25.9815 14.4714H17.75C16.935 14.4714 16.1526 14.6511 15.4354 14.9941L13.5446 12.1521C13.2512 11.7111 12.7622 11.4497 12.2406 11.4497H8.65464C7.79074 11.4497 7.08984 12.1521 7.08984 13.0177C7.08984 13.8834 7.79074 14.5857 8.65464 14.5857H11.4093L13.1045 17.1337C12.371 18.3587 12.1428 19.7961 12.4688 21.2007L14.5063 29.6941C14.6856 30.4127 15.3213 30.8864 16.0222 30.8864C16.1526 30.9027 16.2667 30.8864 16.3971 30.8537ZM19.6897 40.7844C18.3531 40.7844 17.261 41.8787 17.261 43.2181C17.261 44.5574 18.3531 45.6517 19.6897 45.6517C21.0263 45.6517 22.1184 44.5574 22.1184 43.2181C22.1184 41.8624 21.0426 40.7844 19.6897 40.7844ZM38.8748 40.7844C37.5382 40.7844 36.4461 41.8787 36.4461 43.2181C36.4461 44.5574 37.5382 45.6517 38.8748 45.6517C40.2114 45.6517 41.3035 44.5574 41.3035 43.2181C41.3035 41.8624 40.2114 40.7844 38.8748 40.7844ZM45.0199 16.6927C43.993 15.3044 42.3956 14.5041 40.6678 14.5041H34.6857V10.1104C34.6857 6.38639 31.6539 3.34839 27.9375 3.34839C24.2211 3.34839 21.1893 6.38639 21.1893 10.1104V11.0414C21.1893 11.9071 21.8902 12.6094 22.7541 12.6094C23.618 12.6094 24.3189 11.9071 24.3189 11.0414V10.1104C24.3189 8.11772 25.9489 6.48439 27.9375 6.48439C29.9261 6.48439 31.5561 8.11772 31.5561 10.1104V16.0721C31.5561 16.9377 32.257 17.6401 33.1209 17.6401H40.6678C41.4013 17.6401 42.0859 17.9831 42.5097 18.5711C42.9498 19.1591 43.0802 19.9104 42.8683 20.6127L39.103 34.8717C38.8422 35.7211 38.0761 36.3091 37.1796 36.3091H19.8853C19.38 36.3091 19.2007 35.9334 19.1355 35.7701C19.0866 35.6067 18.9888 35.1984 19.3963 34.8881C19.3963 34.8881 19.4126 34.8881 19.4126 34.8717L30.1217 27.1461V27.5544V29.5634C30.1217 30.4291 30.8226 31.1314 31.6865 31.1314C32.5504 31.1314 33.2513 30.4291 33.2513 29.5634V27.5544V23.8957V23.1281C33.2513 22.2624 32.5504 21.5601 31.6865 21.5601H25.3621C24.4982 21.5601 23.7973 22.2624 23.7973 23.1281C23.7973 23.9937 24.4982 24.6961 25.3621 24.6961H27.9538L17.4729 32.4217C16.1363 33.4671 15.631 35.1821 16.1852 36.7827C16.7394 38.3834 18.1901 39.4287 19.8853 39.4287H37.1796C39.4616 39.4287 41.4339 37.9587 42.0859 35.7701L45.8512 21.5111C46.3565 19.8451 46.0468 18.0811 45.0199 16.6927Z" fill="url(#paint0_linear_865_19054)"/>
<path d="M94.6038 32.5198C92.6152 32.5198 91.6209 31.5888 91.6209 29.6941V23.8141H96.4783V19.5184H91.6209V14.4551H89.5834C88.0349 14.4551 86.7635 15.7128 86.7635 17.2808V19.5348H83.0797V23.8304H86.7635V30.8048C86.7635 32.6831 87.3829 34.1858 88.6217 35.3291C89.8605 36.4724 91.4742 37.0441 93.4791 37.0441C94.5875 37.0441 95.7285 36.8481 96.9184 36.4724L96.3968 32.2421C95.7937 32.4218 95.1906 32.5198 94.6038 32.5198ZM73.1693 18.9141C70.5939 18.9141 68.3771 19.8288 66.5352 21.6418C64.6933 23.4548 63.7805 25.6598 63.7805 28.2078C63.7805 30.7721 64.6933 32.9444 66.5352 34.7411C68.3771 36.5378 70.5776 37.4361 73.1693 37.4361C75.7447 37.4361 77.9615 36.5378 79.8034 34.7411C81.6453 32.9444 82.5581 30.7721 82.5581 28.2078C82.5581 25.6434 81.6453 23.4548 79.8034 21.6418C77.9452 19.8288 75.7447 18.9141 73.1693 18.9141ZM76.2011 31.5561C75.3698 32.4381 74.3592 32.8628 73.153 32.8464C71.9631 32.8628 70.9362 32.4381 70.1049 31.5561C69.2736 30.6741 68.8498 29.5798 68.8498 28.2568C68.8498 26.9174 69.2736 25.8068 70.1049 24.9248C70.9362 24.0428 71.9468 23.6181 73.153 23.6344C74.3429 23.6181 75.3698 24.0428 76.2011 24.9248C77.0324 25.8068 77.4562 26.9174 77.4562 28.2568C77.4562 29.5634 77.0324 30.6741 76.2011 31.5561ZM61.9386 32.4871C61.2377 32.4871 60.6509 32.2748 60.1782 31.8664C59.7055 31.4581 59.4773 30.8211 59.4773 29.9881V10.5351H54.5547V30.9028C54.5547 32.8301 55.0926 34.3328 56.1847 35.4108C57.2768 36.4888 58.7601 37.0278 60.6346 37.0278C61.4496 37.0278 62.3787 36.8971 63.4056 36.6358L62.9166 32.3401C62.6395 32.4381 62.3135 32.4871 61.9386 32.4871ZM155.908 19.5184H149.649L147.497 22.5401L150.627 26.9664L155.908 19.5184ZM135.696 19.5184C134.653 19.5184 133.707 20.1554 133.333 21.1354L130.415 28.6488L129.486 31.0498L125.476 21.1028C125.085 20.1391 124.156 19.5184 123.129 19.5184H119.494L126.878 37.7954L126.829 37.9261C126.193 39.5921 124.596 40.6864 122.819 40.6864H111.751C109.844 40.6864 108.296 42.2381 108.296 44.1491V45.6354H122.835C126.65 45.6354 130.089 43.2834 131.458 39.7228L139.298 19.5184H135.696ZM110.643 36.9624C112.045 36.9624 113.169 35.8191 113.169 34.4308V23.8304H118.027V19.5348H113.169V17.9668C113.169 16.9541 113.447 16.2191 114.001 15.7454C114.555 15.2718 115.256 15.0431 116.12 15.0431C116.641 15.0431 117.196 15.1247 117.815 15.2881L118.337 10.8127C117.147 10.4861 116.038 10.3228 115.028 10.3228C113.039 10.3228 111.409 10.9108 110.138 12.0704C108.866 13.2301 108.247 14.7491 108.247 16.6274V19.5184H104.563V23.8141H108.247V36.9461H110.643V36.9624ZM98.2876 36.9624H100.57C101.971 36.9624 103.096 35.8191 103.096 34.4308V19.5348H98.2876V36.9624ZM140.863 19.5184L139.592 22.8014L143.455 28.2568L137.277 36.9788H143.536L146.584 32.6668L149.633 36.9788H155.892L143.52 19.5184H140.863ZM100.716 11.3844C99.9665 11.3844 99.3145 11.6457 98.7603 12.1847C98.2061 12.7074 97.929 13.3444 97.929 14.0631C97.929 14.8307 98.2061 15.5004 98.7603 16.0394C99.3145 16.5784 99.9665 16.8561 100.716 16.8561C101.466 16.8561 102.118 16.5784 102.656 16.0394C103.194 15.5004 103.471 14.8471 103.471 14.0631C103.471 13.3281 103.194 12.7074 102.656 12.1847C102.102 11.6457 101.466 11.3844 100.716 11.3844Z" fill="black"/>
</g>
<defs>
<linearGradient id="paint0_linear_865_19054" x1="10.1138" y1="9.34524" x2="43.176" y2="42.3401" gradientUnits="userSpaceOnUse">
<stop stop-color="#8234FE"/>
<stop offset="0.4699" stop-color="#527CFE"/>
<stop offset="0.8242" stop-color="#32ACFE"/>
<stop offset="1" stop-color="#26BEFE"/>
</linearGradient>
<clipPath id="clip0_865_19054">
<rect width="163" height="49" fill="white"/>
</clipPath>
</defs>
</svg>
